<svg version="1.1" id="Layer_1" xmlns="http://www.w3.org/2000/svg" x="0" y="0" viewBox="0 0 234.98 235.23" xml:space="preserve"><style>.st3{fill:#aecc53}</style><path d="M206.88 117.61c0-49.3-39.97-89.27-89.27-89.27s-89.27 39.97-89.27 89.27 39.97 89.27 89.27 89.27c2.95 0 88.98-.43 88.98-.43s.29-86.44.29-88.84z" fill="#0d4b76"/><path d="M74.73 81.12c-.79 2.99-1.21 6.13-1.21 9.38 0 20.25 16.41 36.66 36.66 36.66 20.25 0 36.66-16.41 36.66-36.66 0-3.24-.43-6.38-1.21-9.38h-70.9z" fill="#fff"/><path d="m124.21 81.05-.04-.05h-28l-.04.06a16.88 16.88 0 0 0-2.88 9.45c0 9.33 7.59 16.92 16.92 16.92 9.33 0 16.92-7.59 16.92-16.92 0-3.4-.99-6.66-2.88-9.46z" fill="#3c3c3c"/><path class="st3" d="M117.11 189.28c-23.43 0-42.5-19.06-42.5-42.5h12.4c0 16.6 13.5 30.1 30.1 30.1v12.4z"/><g><path class="st3" d="m178.14 160.45-34.92-.19.07-12.4 22.45.13V80.15h12.4z"/></g></svg>